<?xml version="1.0" encoding="UTF-8" standalone="no"?>
<!DOCTYPE svg PUBLIC "-//W3C//DTD SVG 1.1//EN" "http://www.w3.org/Graphics/SVG/1.1/DTD/svg11.dtd">
<svg width="100%" height="100%" viewBox="0 0 1344 288" version="1.1" xmlns="http://www.w3.org/2000/svg" xmlns:xlink="http://www.w3.org/1999/xlink" xml:space="preserve" xmlns:serif="http://www.serif.com/" style="fill-rule:evenodd;clip-rule:evenodd;stroke-linejoin:round;stroke-miterlimit:2;">
    <g id="Layer_2">
        <g id="Final_Logos">
            <path d="M42.81,92.44L70,92.44C98.18,92.44 122.29,72.05 122.29,43.16C122.29,21 106.51,6.16 83.65,6.16L27.92,6.16L8.87,126.56L37.4,126.56L42.81,92.44ZM52.56,30.75L77.82,30.75C87.04,30.75 92.82,36.87 92.82,46.17C92.82,58.05 84.13,67.89 71.9,67.89L46.71,67.89L52.56,30.75Z" style="fill:white;fill-rule:nonzero;"/>
            <path d="M167.32,128.33C180.08,128.33 192.76,125.05 199.76,121.59L199.31,99.35C193.55,102.18 182.03,104.75 170.78,104.75C159.7,104.75 152.34,101.56 150.57,93.41C199.85,92.52 209.15,78.41 209.15,64.16C209.15,48.83 197.45,39.7 177.34,39.7C147.65,39.7 124.25,60.7 124.25,90.84C124.25,113.53 139.76,128.33 167.32,128.33ZM174.76,61.86C180.08,61.86 182.92,63.86 182.92,67.09C182.92,70.72 178.58,74.27 152.79,75.24C155.53,67.18 163.6,61.86 174.76,61.86Z" style="fill:white;fill-rule:nonzero;"/>
            <path d="M250.09,85.61C252.57,69.75 262.32,64 272.6,64C276.081,63.999 279.534,64.629 282.79,65.86L288.38,41.49C285.195,40.339 281.837,39.737 278.45,39.71C268.702,39.722 259.63,44.798 254.52,53.1L255.52,41.49L229.71,41.49L216.24,126.57L243.62,126.57L250.09,85.61Z" style="fill:white;fill-rule:nonzero;"/>
            <path d="M333.61,64.25L355.77,64.25L359.4,41.48L336.27,41.48L337.27,35.63C339.58,20.74 356.95,22.24 363.86,25.52L370.3,2.84C364.712,0.921 358.839,-0.04 352.93,0C327.41,0 313.85,16.4 311.1,34L309.86,41.45L296.12,41.45L292.58,64.22L306.31,64.22L292.13,153.6L4.33,153.6L0,180.7L1327.22,180.7L1331.55,153.63L319.55,153.63L333.61,64.25Z" style="fill:white;fill-rule:nonzero;"/>
            <path d="M396.76,128.33C425.38,128.33 449.22,106.08 449.22,77.81C449.22,55.81 433.98,39.7 410.85,39.7C382.31,39.7 358.38,61.95 358.38,90.22C358.38,112.2 373.63,128.33 396.76,128.33ZM407,64.43C416.13,64.43 421.89,71.08 421.89,80.74C421.89,93.85 412.49,103.6 400.8,103.6C391.58,103.6 385.8,96.95 385.8,87.29C385.77,74.18 395.16,64.43 407,64.43Z" style="fill:white;fill-rule:nonzero;"/>
            <path d="M490.43,85.61C492.91,69.75 502.66,64 512.94,64C516.421,64 519.873,64.63 523.13,65.86L528.71,41.49C525.528,40.339 522.174,39.737 518.79,39.71C509.042,39.722 499.97,44.798 494.86,53.1L495.86,41.49L470,41.49L456.53,126.57L484,126.57L490.43,85.61Z" style="fill:white;fill-rule:nonzero;"/>
            <path d="M554,126.56L561.44,79.23C562.547,71.219 569.483,65.199 577.57,65.23C584.22,65.23 590.51,69.75 589,79.23L581.47,126.56L608.85,126.56L616.39,79.23C617.547,71.174 624.562,65.152 632.7,65.23C639.52,65.23 645.55,69.75 644.04,79.23L636.59,126.56L663.89,126.56L672.67,71.25C675.94,50.52 662.47,39.7 646.43,39.7C634.747,39.77 623.662,44.956 616.12,53.88C613.2,44.49 603.27,39.7 592.12,39.7C582.38,39.7 571.74,42.81 564.65,50.43L565.18,41.43L540.05,41.43L526.58,126.51L554,126.56Z" style="fill:white;fill-rule:nonzero;"/>
            <path d="M716.49,128.33C728.19,128.33 737.06,123.63 742.73,117.6L742.2,126.6L768.69,126.6L782.17,41.52L755.67,41.52L753.36,50.52C749.55,44.58 742.28,39.79 730.5,39.79C705.5,39.79 684.23,62.57 684.23,91.37C684.23,112.73 696.91,128.33 716.49,128.33ZM733.07,64.52C742.46,64.61 748.31,71.25 748.31,80.91C748.31,93.91 738.83,103.69 726.86,103.69C717.56,103.69 711.71,96.95 711.71,87.29C711.71,74.27 721.19,64.52 733.07,64.52Z" style="fill:white;fill-rule:nonzero;"/>
            <path d="M822,79.23C823.107,71.219 830.043,65.199 838.13,65.23C844.78,65.23 851.42,69.75 849.92,79.23L842.39,126.56L869.77,126.56L878.54,71.25C881.68,51 868.39,39.7 852.61,39.7C842.87,39.7 832.23,42.81 825.14,50.43L825.67,41.43L800.59,41.43L787.12,126.51L814.51,126.51L822,79.23Z" style="fill:white;fill-rule:nonzero;"/>
            <path d="M930.07,128.33C941.07,128.33 948.94,126.02 959.31,121.33L960.47,96.87C952.04,100.68 946.2,102.71 937.16,102.71C925.99,102.71 917.75,97.22 917.75,86.76C917.75,70.54 930.69,64.96 944.6,64.96C951.463,64.96 958.252,66.38 964.54,69.13L970.3,45.38C962.033,41.44 952.956,39.494 943.8,39.7C914.82,39.7 890,58 890,90.4C890,112.91 906.14,128.33 930.07,128.33Z" style="fill:white;fill-rule:nonzero;"/>
            <path d="M1016.47,128.33C1029.23,128.33 1041.91,125.05 1048.91,121.59L1048.47,99.35C1042.71,102.18 1031.18,104.75 1019.93,104.75C1008.85,104.75 1001.49,101.56 999.72,93.41C1049,92.52 1058.3,78.41 1058.3,64.16C1058.3,48.83 1046.6,39.7 1026.49,39.7C996.8,39.7 973.4,60.7 973.4,90.84C973.4,113.53 988.91,128.33 1016.47,128.33ZM1023.92,61.86C1029.23,61.86 1032.07,63.86 1032.07,67.09C1032.07,70.72 1027.73,74.27 1001.94,75.24C1004.69,67.18 1012.75,61.86 1023.92,61.86Z" style="fill:white;fill-rule:nonzero;"/>
            <path d="M1099.86,92.44L1127.07,92.44C1155.25,92.44 1179.36,72.05 1179.36,43.16C1179.36,21 1163.58,6.16 1140.72,6.16L1085,6.16L1066,126.52L1094.53,126.52L1099.86,92.44ZM1109.61,30.75L1134.87,30.75C1144.09,30.75 1149.87,36.87 1149.87,46.17C1149.87,58.05 1141.18,67.89 1128.95,67.89L1103.78,67.89L1109.61,30.75Z" style="fill:white;fill-rule:nonzero;"/>
            <path d="M1214.18,85.61C1216.66,69.75 1226.41,63.99 1236.69,63.99C1240.17,63.989 1243.62,64.619 1246.88,65.85L1252.47,41.48C1249.29,40.329 1245.93,39.727 1242.54,39.7C1232.79,39.712 1223.72,44.788 1218.61,53.09L1219.61,41.48L1193.8,41.48L1180.33,126.56L1207.71,126.56L1214.18,85.61Z" style="fill:white;fill-rule:nonzero;"/>
            <path d="M1291.1,128.33C1319.73,128.33 1343.57,106.08 1343.57,77.81C1343.57,55.81 1328.33,39.7 1305.2,39.7C1276.66,39.7 1252.73,61.95 1252.73,90.22C1252.73,112.2 1268,128.33 1291.1,128.33ZM1301.3,64.43C1310.42,64.43 1316.19,71.08 1316.19,80.74C1316.19,93.85 1306.79,103.6 1295.09,103.6C1285.87,103.6 1280.09,96.95 1280.09,87.29C1280.11,74.18 1289.51,64.43 1301.3,64.43Z" style="fill:white;fill-rule:nonzero;"/>
            <path d="M976.2,265.68L959.42,265.68L959.42,286.33L941.77,286.33L941.77,213.49L976.2,213.49C991.92,213.49 1003.94,224 1003.94,239.61C1003.94,255.22 991.92,265.68 976.2,265.68ZM959.42,228.35L959.42,250.82L975,250.82C981.71,250.82 985.89,245.82 985.89,239.56C985.89,232.8 981.49,228.35 975,228.35L959.42,228.35Z" style="fill:rgb(241,91,40);fill-rule:nonzero;"/>
            <path d="M1012.88,213.49L1030.53,213.49L1030.53,259.13C1030.53,268.2 1036.8,272.13 1044.96,272.13C1053.64,272.13 1059.44,267.84 1059.44,259.13L1059.44,213.49L1077.08,213.49L1077.08,260.1C1077.08,279.35 1061.74,287.4 1044.96,287.4C1026.77,287.4 1012.88,278.66 1012.88,260.1L1012.88,213.49Z" style="fill:rgb(241,91,40);fill-rule:nonzero;"/>
            <path d="M1104.81,213.49L1130.55,244L1156.19,213.48L1171.1,213.48L1171.1,286.32L1153.45,286.32L1153.45,240.9L1131.68,265.84L1129.53,265.84L1107.53,240.9L1107.53,286.33L1089.88,286.33L1089.88,213.49L1104.81,213.49Z" style="fill:rgb(241,91,40);fill-rule:nonzero;"/>
            <path d="M1218.78,265.68L1202,265.68L1202,286.33L1184.35,286.33L1184.35,213.49L1218.79,213.49C1234.5,213.49 1246.52,224 1246.52,239.61C1246.52,255.22 1234.49,265.68 1218.78,265.68ZM1202,228.35L1202,250.82L1217.55,250.82C1224.26,250.82 1228.44,245.82 1228.44,239.56C1228.44,232.8 1224.04,228.35 1217.55,228.35L1202,228.35Z" style="fill:rgb(241,91,40);fill-rule:nonzero;"/>
            <path d="M1306.3,217.51L1304.85,232.58C1302.22,230.87 1291.23,227.65 1282.54,227.65C1276.32,227.65 1271.28,229.26 1271.28,234.19C1271.28,238.7 1275.57,239.82 1279.75,241L1290.16,244C1303.56,247.86 1310.22,253.38 1310.22,264.86C1310.22,278.22 1298.95,287.39 1281.22,287.39C1270.49,287.39 1258.48,284.39 1253.7,281.7L1255.1,266.2C1256.92,268.2 1269.96,271.94 1279.99,271.94C1286.58,271.94 1292.11,270.33 1292.11,265.45C1292.11,262.07 1289.8,260.36 1284.49,258.96L1273.12,256.07C1263.41,252.9 1253.22,248.13 1253.22,235.07C1253.22,221.5 1264.59,212.44 1281.81,212.44C1292.36,212.42 1300.45,214.62 1306.3,217.51Z" style="fill:rgb(241,91,40);fill-rule:nonzero;"/>
            <path d="M41.71,255.36L40.34,264L36.07,264L40.55,235.85L53,235.85C57.6,235.85 61.25,238.44 61.25,243.96C61.252,244.044 61.253,244.128 61.253,244.211C61.253,250.339 56.211,255.381 50.083,255.381C50.025,255.381 49.968,255.381 49.91,255.38L41.71,255.36ZM44.18,239.79L42.33,251.44L49.77,251.44C49.87,251.444 49.97,251.447 50.07,251.447C53.746,251.447 56.77,248.422 56.77,244.747L56.77,244.7C56.77,241.45 54.55,239.79 51.63,239.79L44.18,239.79Z" style="fill:white;fill-rule:nonzero;"/>
            <path d="M77.17,255.36L70.59,255.36L69.23,264L65,264L69.47,235.85L81.91,235.85C86.51,235.85 90.16,238.44 90.16,243.96C90.242,249.071 86.781,253.609 81.83,254.88C83.36,257.22 84.75,260.88 88.17,260.88C88.527,260.891 88.884,260.851 89.23,260.76L88.69,264.18C87.954,264.342 87.203,264.426 86.45,264.43C80.81,264.4 79,257.47 77.17,255.36ZM73.06,239.79L71.22,251.44L78.66,251.44C78.763,251.445 78.867,251.447 78.97,251.447C82.64,251.447 85.66,248.427 85.66,244.757L85.66,244.7C85.66,241.45 83.45,239.79 80.52,239.79L73.06,239.79Z" style="fill:white;fill-rule:nonzero;"/>
            <path d="M112.6,235.42C120.1,235.42 125.1,240.62 125.1,247.92C125.1,257.45 117.33,264.4 108.02,264.4C100.62,264.4 95.62,259.4 95.62,252.15C95.663,242.958 103.238,235.419 112.43,235.419C112.487,235.419 112.543,235.419 112.6,235.42ZM108.66,260.27C108.792,260.275 108.924,260.277 109.056,260.277C115.392,260.277 120.606,255.063 120.606,248.727C120.606,248.601 120.604,248.476 120.6,248.35C120.6,243.19 117.33,239.54 111.96,239.54L111.914,239.54C105.473,239.54 100.174,244.84 100.174,251.28C100.174,251.41 100.176,251.54 100.18,251.67C100.18,256.83 103.44,260.27 108.66,260.27Z" style="fill:white;fill-rule:nonzero;"/>
            <path d="M134.23,235.83L138.5,235.83L135.66,253.74C134.93,258.3 137.96,260.27 142.27,260.27C146.92,260.27 150.27,258.12 151.02,253.74L153.86,235.83L158.11,235.83L155.21,254.14C154.07,261.37 147.89,264.4 141.63,264.4C134.85,264.4 130.23,261.12 131.33,254.14L134.23,235.83Z" style="fill:white;fill-rule:nonzero;"/>
            <path d="M178.6,235.83C186.41,235.83 190.33,240.5 190.33,247.4C190.33,256.98 184.47,263.98 174.14,263.98L162.45,263.98L166.93,235.83L178.6,235.83ZM185.9,247.75C185.9,242.82 183.39,239.75 177.35,239.75L170.56,239.75L167.34,260L174.14,260C182.81,260 185.9,254.86 185.9,247.75Z" style="fill:white;fill-rule:nonzero;"/>
            <path d="M215.3,264L195.3,264L199.78,235.85L204,235.85L200.23,260L215.92,260L215.3,264Z" style="fill:white;fill-rule:nonzero;"/>
            <path d="M238.81,235.83L244,235.83L230.38,253.16L228.72,264L224.47,264L226.19,253.18L218.06,235.85L223,235.85L228.84,248.77L238.81,235.83Z" style="fill:white;fill-rule:nonzero;"/>
            <path d="M260.27,235.83L272.18,235.83C277.08,235.83 279.71,238.83 279.71,242.74C279.71,245.31 278.8,247.48 275.83,249.39C278.029,250.356 279.41,252.592 279.29,254.99C279.29,259.8 275.29,263.99 269.2,263.99L255.79,263.99L260.27,235.83ZM269.78,260.09C269.89,260.098 270,260.101 270.11,260.101C272.716,260.101 274.86,257.957 274.86,255.351L274.86,255.32C274.866,255.237 274.869,255.153 274.869,255.07C274.869,253.155 273.294,251.58 271.379,251.58C271.289,251.58 271.199,251.583 271.11,251.59L262,251.59L260.65,260.09L269.78,260.09ZM270.09,247.98C273.26,247.98 275.29,245.98 275.29,243.23C275.29,240.87 273.47,239.73 271.17,239.73L263.91,239.73L262.61,247.98L270.09,247.98Z" style="fill:white;fill-rule:nonzero;"/>
            <path d="M289.48,235.83L293.75,235.83L290.91,253.74C290.19,258.3 293.21,260.27 297.52,260.27C302.17,260.27 305.57,258.12 306.27,253.74L309.11,235.83L313.36,235.83L310.46,254.14C309.32,261.37 303.14,264.4 296.88,264.4C290.1,264.4 285.48,261.12 286.58,254.14L289.48,235.83Z" style="fill:white;fill-rule:nonzero;"/>
            <path d="M322,264L317.7,264L322.18,235.85L326.43,235.85L322,264Z" style="fill:white;fill-rule:nonzero;"/>
            <path d="M351,264L331,264L335.48,235.85L339.75,235.85L336,260L351.7,260L351,264Z" style="fill:white;fill-rule:nonzero;"/>
            <path d="M362.45,239.92L353.33,239.92L353.98,235.83L376.42,235.83L375.78,239.92L366.7,239.92L362.89,264L358.64,264L362.45,239.92Z" style="fill:white;fill-rule:nonzero;"/>
            <path d="M392.92,264L388.65,264L393.13,235.85L397.38,235.85L392.92,264Z" style="fill:white;fill-rule:nonzero;"/>
            <path d="M406.26,264L402,264L406.48,235.85L410.48,235.85L424.86,257.72L428.31,235.85L432.58,235.85L428.15,264L424,264L409.64,242.34L406.26,264Z" style="fill:white;fill-rule:nonzero;"/>
            <path d="M457.75,239.92L448.63,239.92L449.27,235.83L471.72,235.83L471.08,239.92L462,239.92L458.18,264L453.93,264L457.75,239.92Z" style="fill:white;fill-rule:nonzero;"/>
            <path d="M496.85,264L492.6,264L494.55,251.61L479.6,251.61L477.6,264L473.32,264L477.8,235.85L482.05,235.85L480.19,247.67L495.13,247.67L497.02,235.85L501.27,235.85L496.85,264Z" style="fill:white;fill-rule:nonzero;"/>
            <path d="M526.38,264L505.92,264L510.4,235.85L530.4,235.85L529.78,239.85L514,239.85L512.78,247.6L526.4,247.6L525.78,251.6L512.18,251.6L510.83,260L527,260L526.38,264Z" style="fill:white;fill-rule:nonzero;"/>
            <path d="M549.86,235.83L554.13,235.83L551.29,253.74C550.57,258.3 553.59,260.27 557.9,260.27C562.55,260.27 565.95,258.12 566.65,253.74L569.49,235.83L573.74,235.83L570.84,254.14C569.7,261.37 563.52,264.4 557.26,264.4C550.48,264.4 545.86,261.12 546.96,254.14L549.86,235.83Z" style="fill:white;fill-rule:nonzero;"/>
            <path d="M599.37,237L598.37,241.13C596.139,239.961 593.648,239.376 591.13,239.43C587.13,239.43 584.46,240.9 584.46,244.05C584.46,246.43 586.46,246.87 588.33,247.47L592.17,248.69C595.61,249.77 597.81,251.49 597.81,254.87C597.81,260.26 592.89,264.45 586.43,264.45C582.69,264.45 578.55,263.62 576.74,262.5L577.74,258.5C580.522,259.738 583.525,260.401 586.57,260.45C590.18,260.45 593.12,258.79 593.12,255.64C593.12,253.88 592.06,253.03 589.82,252.36L585.6,251.1C582.76,250.23 579.77,248.59 579.77,244.9C579.77,239.49 584.15,235.47 591.23,235.47C594.021,235.397 596.796,235.919 599.37,237Z" style="fill:white;fill-rule:nonzero;"/>
            <path d="M621.85,258.12L607.94,258.12L604.77,264L600.23,264L616.07,235.85L620.73,235.85L627.67,264L623.11,264L621.85,258.12ZM609.68,254.49L621.15,254.49L617.64,240.7L609.68,254.49Z" style="fill:white;fill-rule:nonzero;"/>
            <path d="M665.54,237L664.54,241.13C662.31,239.958 659.818,239.373 657.3,239.43C653.3,239.43 650.63,240.9 650.63,244.05C650.63,246.43 652.63,246.87 654.5,247.47L658.34,248.69C661.78,249.77 663.98,251.49 663.98,254.87C663.98,260.26 659.07,264.45 652.6,264.45C648.87,264.45 644.72,263.62 642.92,262.5L643.92,258.5C646.702,259.738 649.705,260.401 652.75,260.45C656.36,260.45 659.3,258.79 659.3,255.64C659.3,253.88 658.3,253.03 656.01,252.36L651.78,251.1C648.94,250.23 645.95,248.59 645.95,244.9C645.95,239.49 650.33,235.47 657.42,235.47C660.204,235.399 662.972,235.921 665.54,237Z" style="fill:white;fill-rule:nonzero;"/>
            <path d="M673.93,264L669.66,264L674.13,235.85L678.38,235.85L673.93,264Z" style="fill:white;fill-rule:nonzero;"/>
            <path d="M687.26,264L683,264L687.48,235.85L691.48,235.85L705.9,257.7L709.34,235.83L713.61,235.83L709.15,264L705.05,264L690.69,242.34L687.26,264Z" style="fill:white;fill-rule:nonzero;"/>
            <path d="M741.4,262.53C738.519,263.821 735.386,264.453 732.23,264.38C723.8,264.38 718.51,259.38 718.51,251.96C718.51,242.34 726.35,235.42 736.75,235.42C739.621,235.39 742.463,235.998 745.07,237.2L744,241.31C741.539,240.119 738.834,239.519 736.1,239.56C728.72,239.56 723.17,244.5 723.17,251.34C723.17,256.64 727.1,260.27 733.36,260.27C736.163,260.271 738.929,259.635 741.45,258.41L741.4,262.53Z" style="fill:white;fill-rule:nonzero;"/>
            <path d="M768.42,264L748,264L752.47,235.85L772.47,235.85L771.85,239.85L756.06,239.85L754.84,247.6L768.46,247.6L767.84,251.6L754.22,251.6L752.87,260L769.06,260L768.42,264Z" style="fill:white;fill-rule:nonzero;"/>
            <path d="M805,260L804.38,263.92L785.87,263.92L786.43,260.4L796.25,251.92C800.63,248.13 801.97,246.16 801.97,243.28C801.97,240.4 799.97,239.36 797.27,239.36C794.847,239.45 792.483,240.137 790.39,241.36L790.3,237.55C792.837,236.177 795.666,235.429 798.55,235.37C803.05,235.37 806.6,237.57 806.6,242.58C806.6,247.39 803.2,250.89 798.8,254.58L792.29,260L805,260Z" style="fill:white;fill-rule:nonzero;"/>
            <path d="M812.08,253C812.08,244.7 816.22,235.44 825.99,235.44C832.74,235.44 835.31,240.77 835.31,246.86C835.31,255.17 831.13,264.42 821.41,264.42C814.65,264.4 812.08,259.05 812.08,253ZM822.08,260.29C828.17,260.29 831.08,253.56 831.08,247.44C831.08,243.19 829.49,239.56 825.38,239.56C819.31,239.56 816.38,246.3 816.38,252.39C816.37,256.64 818,260.27 822.05,260.27L822.08,260.29Z" style="fill:white;fill-rule:nonzero;"/>
            <path d="M840.9,253C840.9,244.7 845.05,235.44 854.81,235.44C861.57,235.44 864.14,240.77 864.14,246.86C864.14,255.17 859.95,264.42 850.23,264.42C843.47,264.4 840.9,259.05 840.9,253ZM850.9,260.29C856.99,260.29 859.9,253.56 859.9,247.44C859.9,243.19 858.3,239.56 854.2,239.56C848.12,239.56 845.2,246.3 845.2,252.39C845.19,256.64 846.79,260.27 850.87,260.27L850.9,260.29Z" style="fill:white;fill-rule:nonzero;"/>
            <path d="M869.72,253C869.72,244.7 873.87,235.44 883.63,235.44C890.39,235.44 892.96,240.77 892.96,246.86C892.96,255.17 888.77,264.42 879.05,264.42C872.29,264.4 869.72,259.05 869.72,253ZM879.72,260.29C885.82,260.29 888.72,253.56 888.72,247.44C888.72,243.19 887.12,239.56 883.02,239.56C876.94,239.56 874.02,246.3 874.02,252.39C874,256.64 875.61,260.27 879.69,260.27L879.72,260.29Z" style="fill:white;fill-rule:nonzero;"/>
        </g>
    </g>
</svg>
